HIERARCHY
ROOT Hips
{
	OFFSET 0.000000 35.082581 0.000000
	CHANNELS 6 Xposition Yposition Zposition Xrotation Yrotation Zrotation 
	JOINT Spine
	{
		OFFSET 0.000000 6.876099 0.125700
		CHANNELS 3 Xrotation Yrotation Zrotation
		JOINT Spine1
		{
			OFFSET 0.000000 5.730043 0.104720
			CHANNELS 3 Xrotation Yrotation Zrotation
			JOINT Spine1_split
			{
				OFFSET 0.000000 5.730043 0.104720
				CHANNELS 3 Xrotation Yrotation Zrotation
				JOINT Spine2
				{
					OFFSET 0.000000 5.730043 0.104720
					CHANNELS 3 Xrotation Yrotation Zrotation
					JOINT Neck
					{
						OFFSET 0.000000 10.314075 0.188496
						CHANNELS 3 Xrotation Yrotation Zrotation
						JOINT Head
						{
							OFFSET 0.000000 7.643700 -2.377400
							CHANNELS 3 Xrotation Yrotation Zrotation
							JOINT HeadTop_End
							{
								OFFSET 0.000000 43.788605 -13.619600
								CHANNELS 3 Xrotation Yrotation Zrotation
								End Site
								{
									OFFSET 0.000000 0.000000 0.000000
								}
							}
						}
					}
					JOINT LeftShoulder
					{
						OFFSET 2.196100 4.412489 0.087492
						CHANNELS 3 Xrotation Yrotation Zrotation
						JOINT LeftShoulder_split
						{
							OFFSET 2.196100 4.412489 0.087492
							CHANNELS 3 Xrotation Yrotation Zrotation
							JOINT LeftArm
							{
								OFFSET 8.771219 -2.981674 -0.026999
								CHANNELS 3 Xrotation Yrotation Zrotation
								JOINT LeftForeArm
								{
									OFFSET 8.512804 0.000000 -0.000000
									CHANNELS 3 Xrotation Yrotation Zrotation
									JOINT LeftHand
									{
										OFFSET 18.484802 0.000000 -0.000000
										CHANNELS 3 Xrotation Yrotation Zrotation
										JOINT LeftHandThumb1
										{
											OFFSET 2.499420 -1.158070 2.653252
											CHANNELS 3 Xrotation Yrotation Zrotation
											JOINT LeftHandThumb2
											{
												OFFSET 2.370079 -1.368366 1.368366
												CHANNELS 3 Xrotation Yrotation Zrotation
												JOINT LeftHandThumb3
												{
													OFFSET 2.676727 -1.545410 1.545409
													CHANNELS 3 Xrotation Yrotation Zrotation
													JOINT LeftHandThumb4
													{
														OFFSET 1.692226 -0.977005 0.977007
														CHANNELS 3 Xrotation Yrotation Zrotation
														End Site
														{
															OFFSET 0.000000 0.000000 0.000000
														}
													}
												}
											}
										}
										JOINT LeftHandIndex1
										{
											OFFSET 7.924831 -0.457527 2.345128
											CHANNELS 3 Xrotation Yrotation Zrotation
											JOINT LeftHandIndex2
											{
												OFFSET 3.643303 0.000000 0.000000
												CHANNELS 3 Xrotation Yrotation Zrotation
												JOINT LeftHandIndex3
												{
													OFFSET 3.810799 0.000000 0.000000
													CHANNELS 3 Xrotation Yrotation Zrotation
													JOINT LeftHandIndex4
													{
														OFFSET 2.403702 0.000000 0.000000
														CHANNELS 3 Xrotation Yrotation Zrotation
														End Site
														{
															OFFSET 0.000000 0.000000 0.000000
														}
													}
												}
											}
										}
										JOINT LeftHandMiddle1
										{
											OFFSET 8.563995 0.000000 -0.000000
											CHANNELS 3 Xrotation Yrotation Zrotation
											JOINT LeftHandMiddle2
											{
												OFFSET 3.861618 0.000000 0.000000
												CHANNELS 3 Xrotation Yrotation Zrotation
												JOINT LeftHandMiddle3
												{
													OFFSET 3.701603 0.000000 0.000000
													CHANNELS 3 Xrotation Yrotation Zrotation
													JOINT LeftHandMiddle4
													{
														OFFSET 2.322544 0.000000 0.000000
														CHANNELS 3 Xrotation Yrotation Zrotation
														End Site
														{
															OFFSET 0.000000 0.000000 0.000000
														}
													}
												}
											}
										}
										JOINT LeftHandRing1
										{
											OFFSET 8.426460 -0.424637 -3.286992
											CHANNELS 3 Xrotation Yrotation Zrotation
											JOINT LeftHandRing2
											{
												OFFSET 3.126408 0.000000 0.000000
												CHANNELS 3 Xrotation Yrotation Zrotation
												JOINT LeftHandRing3
												{
													OFFSET 3.085026 0.000000 0.000000
													CHANNELS 3 Xrotation Yrotation Zrotation
													JOINT LeftHandRing4
													{
														OFFSET 1.644005 0.000000 0.000000
														CHANNELS 3 Xrotation Yrotation Zrotation
														End Site
														{
															OFFSET 0.000000 0.000000 0.000000
														}
													}
												}
											}
										}
									}
								}
							}
						}
					}
					JOINT RightShoulder
					{
						OFFSET -2.196100 4.412496 0.070690
						CHANNELS 3 Xrotation Yrotation Zrotation
						JOINT RightShoulder_split
						{
							OFFSET -2.196100 4.412496 0.070690
							CHANNELS 3 Xrotation Yrotation Zrotation
							JOINT RightArm
							{
								OFFSET -8.771282 -2.981682 -0.094208
								CHANNELS 3 Xrotation Yrotation Zrotation
								JOINT RightForeArm
								{
									OFFSET -8.494598 0.000000 0.000000
									CHANNELS 3 Xrotation Yrotation Zrotation
									JOINT RightHand
									{
										OFFSET -18.483803 0.000000 0.000001
										CHANNELS 3 Xrotation Yrotation Zrotation
										JOINT RightHandThumb1
										{
											OFFSET -2.527351 -1.008072 2.575253
											CHANNELS 3 Xrotation Yrotation Zrotation
											JOINT RightHandThumb2
											{
												OFFSET -2.321518 -1.340328 1.340329
												CHANNELS 3 Xrotation Yrotation Zrotation
												JOINT RightHandThumb3
												{
													OFFSET -2.657753 -1.534454 1.534455
													CHANNELS 3 Xrotation Yrotation Zrotation
													JOINT RightHandThumb4
													{
														OFFSET -1.807510 -1.043568 1.043567
														CHANNELS 3 Xrotation Yrotation Zrotation
														End Site
														{
															OFFSET 0.000000 0.000000 0.000000
														}
													}
												}
											}
										}
										JOINT RightHandIndex1
										{
											OFFSET -8.811420 0.015533 2.887987
											CHANNELS 3 Xrotation Yrotation Zrotation
											JOINT RightHandIndex2
											{
												OFFSET -3.537502 0.000000 0.000000
												CHANNELS 3 Xrotation Yrotation Zrotation
												JOINT RightHandIndex3
												{
													OFFSET -3.356201 0.000000 0.000000
													CHANNELS 3 Xrotation Yrotation Zrotation
													JOINT RightHandIndex4
													{
														OFFSET -1.933098 0.000000 0.000000
														CHANNELS 3 Xrotation Yrotation Zrotation
														End Site
														{
															OFFSET 0.000000 0.000000 0.000000
														}
													}
												}
											}
										}
										JOINT RightHandMiddle1
										{
											OFFSET -8.178135 0.000000 0.000000
											CHANNELS 3 Xrotation Yrotation Zrotation
											JOINT RightHandMiddle2
											{
												OFFSET -3.901302 0.000000 0.000000
												CHANNELS 3 Xrotation Yrotation Zrotation
												JOINT RightHandMiddle3
												{
													OFFSET -3.909599 0.000000 0.000000
													CHANNELS 3 Xrotation Yrotation Zrotation
													JOINT RightHandMiddle4
													{
														OFFSET -2.376003 0.000000 0.000000
														CHANNELS 3 Xrotation Yrotation Zrotation
														End Site
														{
															OFFSET 0.000000 0.000000 0.000000
														}
													}
												}
											}
										}
										JOINT RightHandRing1
										{
											OFFSET -7.559013 0.014137 -2.865403
											CHANNELS 3 Xrotation Yrotation Zrotation
											JOINT RightHandRing2
											{
												OFFSET -3.449306 0.000000 0.000000
												CHANNELS 3 Xrotation Yrotation Zrotation
												JOINT RightHandRing3
												{
													OFFSET -3.362106 0.000000 0.000000
													CHANNELS 3 Xrotation Yrotation Zrotation
													JOINT RightHandRing4
													{
														OFFSET -2.076401 0.000000 0.000000
														CHANNELS 3 Xrotation Yrotation Zrotation
														End Site
														{
															OFFSET 0.000000 0.000000 0.000000
														}
													}
												}
											}
										}
									}
								}
							}
						}
					}
				}
			}
		}
	}
	JOINT LeftUpLeg
	{
		OFFSET 10.205400 -3.823500 0.155100
		CHANNELS 3 Xrotation Yrotation Zrotation
		JOINT LeftLeg
		{
			OFFSET 0.708757 -12.982077 0.567790
			CHANNELS 3 Xrotation Yrotation Zrotation
			JOINT LeftFoot
			{
				OFFSET -0.708756 -10.717838 -2.184338
				CHANNELS 3 Xrotation Yrotation Zrotation
				JOINT LeftToeBase
				{
					OFFSET 0.108149 -7.191104 7.560241
					CHANNELS 3 Xrotation Yrotation Zrotation
					JOINT LeftToe_End
					{
						OFFSET 0.070230 0.081724 4.490308
						CHANNELS 3 Xrotation Yrotation Zrotation
						End Site
						{
							OFFSET 0.000000 0.000000 0.000000
						}
					}
				}
			}
		}
	}
	JOINT RightUpLeg
	{
		OFFSET -10.205400 -3.823500 0.005500
		CHANNELS 3 Xrotation Yrotation Zrotation
		JOINT RightLeg
		{
			OFFSET -0.708756 -12.982134 0.610632
			CHANNELS 3 Xrotation Yrotation Zrotation
			JOINT RightFoot
			{
				OFFSET 0.708754 -10.717769 -1.945823
				CHANNELS 3 Xrotation Yrotation Zrotation
				JOINT RightToeBase
				{
					OFFSET -0.108140 -7.191069 7.372968
					CHANNELS 3 Xrotation Yrotation Zrotation
					JOINT RightToe_End
					{
						OFFSET -0.070227 0.081735 4.479403
						CHANNELS 3 Xrotation Yrotation Zrotation
						End Site
						{
							OFFSET 0.000000 0.000000 0.000000
						}
					}
				}
			}
		}
	}
}
MOTION
Frames: 4
Frame Time: 0.016667
-0.301781 26.564659 0.292934 11.655832 -49.360722 11.305333 10.974532 2.698990 -2.069935 6.100702 5.566549 -4.284687 0.000000 0.000000 0.000000 -5.786932 6.328147 -3.046181 2.318912 9.363315 -0.265300 -4.146747 23.161907 -3.523338 0.000000 -0.000000 0.000000 -1.875338 -16.181739 -2.870457 0.000000 0.000000 0.000000 -10.644684 2.164771 -45.510654 -22.862378 -25.786266 -15.871683 2.491066 -2.511882 6.860495 18.457939 -9.513835 13.216579 -1.150204 11.255335 -8.400835 5.706533 8.483115 -0.820715 -0.000004 0.000000 -0.000004 -1.232799 -5.771936 -0.192347 0.133955 -0.197646 -4.602126 0.055743 -0.448189 -7.568188 -0.000001 0.000003 -0.000002 1.884734 4.663371 -4.597411 0.476699 -1.009855 -12.986430 0.628524 -1.346611 -16.554017 -0.000001 0.000001 -0.000001 3.024609 7.938948 -14.103494 -0.708011 -0.566239 -18.895732 -0.726398 -0.705029 -22.058437 -0.000004 0.000001 0.000001 -5.074754 24.344982 1.482907 0.000000 0.000000 0.000000 6.642463 -34.734999 57.610433 -21.032063 44.833864 19.961750 -0.087239 35.608488 7.474322 55.149519 18.649563 -29.698284 -0.442538 -14.180531 7.313154 21.667003 -29.244514 9.142387 -0.000000 0.000001 0.000003 5.673390 7.585032 36.844137 1.050449 3.824482 68.900271 0.499587 3.026037 62.196433 0.000002 0.000002 -0.000003 -0.125696 1.886095 45.000773 -1.169008 3.204694 68.417677 -0.936424 1.813616 41.107535 0.000002 -0.000001 0.000001 -5.311997 1.216627 58.508828 -0.745192 1.667588 48.011244 -0.816475 1.840621 53.666552 -0.000002 -0.000002 -0.000002 -69.352648 16.208312 51.972214 53.929456 -25.144863 2.808926 2.213539 2.700438 -19.144327 -0.941251 -6.111105 0.982466 0.000000 -0.000000 0.000000 -27.355109 4.523083 -38.849122 61.087764 11.597665 -5.601569 -37.636528 -11.607018 32.641932 0.528320 2.970037 1.471441 0.000000 0.000001 -0.000000 
-0.298656 26.594795 0.259805 11.459407 -49.671502 11.092636 10.953416 2.702097 -2.082290 5.917135 5.588676 -4.389559 0.000000 0.000000 0.000000 -5.960383 6.358704 -3.163038 2.261344 9.594046 -0.194445 -3.771941 23.396936 -3.738607 -0.000000 -0.000000 -0.000000 -1.850129 -16.049198 -2.794395 0.000000 0.000000 0.000000 -9.956445 2.817340 -45.285910 -23.315179 -27.943281 -17.248420 2.184512 -1.065443 7.247028 18.457970 -9.513814 13.216593 -1.150194 11.255330 -8.400835 5.706542 8.483084 -0.820695 -0.000000 0.000003 -0.000002 -1.232787 -5.771935 -0.192343 0.133965 -0.197655 -4.602086 0.055750 -0.448157 -7.568192 0.000000 0.000000 -0.000001 1.884748 4.663371 -4.597384 0.476675 -1.009828 -12.986438 0.628540 -1.346623 -16.554049 -0.000001 0.000002 0.000001 3.024612 7.938923 -14.103471 -0.707999 -0.566201 -18.895732 -0.726408 -0.705013 -22.058408 0.000001 0.000001 -0.000000 -5.082238 24.342379 1.498997 0.000000 0.000000 0.000000 5.825090 -34.063793 57.690161 -20.478447 43.293974 19.040909 0.231081 35.997160 7.762174 55.149522 18.649572 -29.698284 -0.442543 -14.180533 7.313153 21.666999 -29.244517 9.142382 0.000002 -0.000001 0.000003 5.673391 7.585030 36.844141 1.050447 3.824478 68.900271 0.499583 3.026038 62.196440 -0.000003 -0.000000 0.000003 -0.125698 1.886098 45.000773 -1.169008 3.204689 68.417677 -0.936427 1.813618 41.107538 0.000001 -0.000001 0.000002 -5.312001 1.216632 58.508828 -0.745195 1.667588 48.011244 -0.816472 1.840621 53.666552 -0.000002 0.000000 0.000000 -69.020209 16.236422 52.253286 53.739467 -25.122040 2.788995 2.208634 2.743293 -19.312527 -0.867451 -6.083763 0.905607 0.000000 0.000000 0.000000 -27.556361 4.546456 -38.643120 61.050177 11.686286 -5.606399 -37.409636 -11.332553 32.497371 0.528336 2.970035 1.471424 0.000000 -0.000000 -0.000000 
-0.297796 26.625183 0.229985 11.326539 -50.021929 10.933084 10.929645 2.705046 -2.084113 5.754464 5.620905 -4.465455 0.000000 0.000000 0.000000 -6.114668 6.395258 -3.246992 2.473460 9.737923 -0.469673 -4.007681 23.494365 -3.699868 -0.000000 0.000000 0.000000 -1.856197 -16.125033 -2.793417 0.000000 0.000000 0.000000 -9.304254 3.610396 -44.990596 -23.777488 -29.920696 -18.575210 1.944020 0.057001 7.820660 18.457953 -9.513805 13.216600 -1.150187 11.255278 -8.400870 5.706508 8.483124 -0.820693 -0.000002 0.000001 -0.000001 -1.232778 -5.771939 -0.192330 0.133958 -0.197693 -4.602108 0.055735 -0.448179 -7.568178 0.000000 0.000005 -0.000003 1.884729 4.663357 -4.597408 0.476685 -1.009831 -12.986415 0.628534 -1.346627 -16.554031 -0.000001 0.000002 -0.000001 3.024612 7.938918 -14.103483 -0.708014 -0.566205 -18.895742 -0.726388 -0.705029 -22.058427 -0.000005 0.000001 0.000000 -5.081640 24.149925 1.470709 0.000000 0.000000 0.000000 7.290187 -35.178930 57.904520 -21.255110 45.591192 20.253125 -0.452701 34.561550 8.086106 55.149519 18.649570 -29.698281 -0.442538 -14.180537 7.313154 21.667003 -29.244514 9.142385 0.000003 0.000003 0.000003 5.673390 7.585033 36.844144 1.050447 3.824482 68.900271 0.499583 3.026039 62.196433 0.000000 -0.000001 0.000001 -0.125694 1.886092 45.000773 -1.169008 3.204691 68.417677 -0.936419 1.813618 41.107535 0.000003 0.000000 0.000000 -5.312002 1.216636 58.508821 -0.745195 1.667584 48.011247 -0.816470 1.840622 53.666555 0.000001 0.000001 0.000001 -68.689259 16.279524 52.581276 53.548294 -25.106959 2.751873 2.166782 2.804352 -19.494475 -0.834052 -5.971953 0.888729 0.000000 -0.000001 -0.000000 -27.826006 4.605374 -38.431214 61.009476 11.786256 -5.606543 -37.156485 -11.036295 32.351167 0.528307 2.970089 1.471444 0.000000 0.000001 -0.000000 
-0.298637 26.655865 0.200273 11.181774 -50.355501 10.797848 10.919242 2.696305 -2.094227 5.661714 5.628870 -4.526598 0.000000 0.000000 0.000000 -6.202364 6.409820 -3.316665 2.263844 9.977091 -0.273079 -3.343282 23.780203 -4.097044 -0.000001 0.000000 0.000000 -1.837235 -16.094004 -2.699856 0.000000 0.000000 0.000000 -8.760475 4.176590 -44.764988 -24.203691 -31.576846 -19.708417 1.849837 0.895193 8.346069 18.457954 -9.513824 13.216583 -1.150201 11.255334 -8.400836 5.706538 8.483089 -0.820720 0.000003 -0.000000 -0.000004 -1.232781 -5.771951 -0.192325 0.133945 -0.197652 -4.602151 0.055763 -0.448187 -7.568188 0.000000 -0.000001 0.000001 1.884757 4.663374 -4.597420 0.476663 -1.009814 -12.986404 0.628564 -1.346606 -16.553990 -0.000000 0.000002 -0.000000 3.024622 7.938931 -14.103470 -0.708022 -0.566183 -18.895768 -0.726401 -0.705045 -22.058437 0.000002 0.000001 0.000001 -5.039702 24.119898 1.323475 0.000000 0.000000 0.000000 8.594069 -36.353962 58.117082 -22.083521 47.698479 21.417696 -0.802653 33.303828 8.194895 55.149519 18.649562 -29.698284 -0.442540 -14.180536 7.313153 21.667004 -29.244514 9.142381 -0.000003 -0.000001 -0.000001 5.673390 7.585029 36.844134 1.050449 3.824482 68.900271 0.499585 3.026040 62.196433 0.000002 -0.000001 0.000003 -0.125698 1.886094 45.000773 -1.169008 3.204689 68.417677 -0.936418 1.813618 41.107535 0.000002 0.000001 0.000002 -5.312000 1.216629 58.508828 -0.745194 1.667590 48.011244 -0.816475 1.840621 53.666548 0.000001 0.000000 -0.000001 -68.294515 16.357803 52.803523 53.338880 -25.044280 2.784519 2.115243 2.887640 -19.733035 -0.739977 -5.883882 0.812426 0.000000 0.000001 0.000000 -28.072113 4.676772 -38.262228 60.989641 11.889070 -5.606875 -36.929518 -10.760131 32.210021 0.528325 2.970049 1.471440 0.000000 0.000006 -0.000000 
